<svg width="64" height="70" viewBox="0 0 64 70" fill="none" xmlns="http://www.w3.org/2000/svg">
<path d="M63.9996 42.7266C63.4867 23.7169 63.2317 14.2091 63.2317 14.2091C63.2174 13.6905 62.8043 13.2697 62.2842 13.2442C60.3822 13.1521 58.493 13.8407 57.0953 15.1372C55.5481 16.5726 54.6676 18.6754 54.6149 21.0601L54.3399 25.984C53.4793 25.3308 52.4877 24.8717 51.4263 24.6407C52.5989 23.612 53.3411 22.1072 53.3411 20.4324C53.3411 17.3406 50.8122 14.8255 47.7035 14.8255C47.6579 14.8255 47.6123 14.8283 47.5667 14.8283C45.7758 10.1439 41.9717 6.53779 37.1789 4.98198C37.0849 2.21894 34.7996 0 32.0014 0C29.2032 0 26.9137 2.21894 26.8197 4.98198C22.0297 6.53779 18.2271 10.1439 16.4362 14.8283C16.3892 14.8283 16.3421 14.8241 16.2951 14.8241C13.1863 14.8241 10.6574 17.3392 10.6574 20.431C10.6574 22.1058 11.3997 23.612 12.5737 24.6407C11.5123 24.8717 10.5192 25.3308 9.66011 25.984L9.38514 21.0601C9.33243 18.6739 8.45194 16.5712 6.90467 15.1358C5.50701 13.8393 3.6178 13.1521 1.71578 13.2428C1.19432 13.2683 0.78115 13.6891 0.768328 14.2077C0.768328 14.2077 0.513299 23.7154 0.000393705 42.7252C-0.00672998 42.9774 0.0830283 43.2225 0.252572 43.411C0.252572 43.411 5.66373 49.4543 16.4818 61.5352L13.1137 61.5323C12.5637 61.5323 12.1178 61.9744 12.1164 62.5214L12.0964 68.9685C12.0964 69.232 12.2004 69.4842 12.3871 69.6713C12.5737 69.8583 12.8273 69.9632 13.0923 69.9632L50.882 70C51.432 70 51.8779 69.5579 51.8794 69.011L51.8993 62.5639C51.8993 62.3003 51.7953 62.0481 51.6087 61.8611C51.422 61.674 51.1684 61.5692 50.9034 61.5692L47.4912 61.5663C58.3277 49.4656 63.7474 43.4124 63.7474 43.4124C63.9156 43.224 64.0067 42.9788 63.9996 42.7266ZM54.1917 28.628L54.025 31.6107L53.9552 33.0389C53.3525 32.7768 52.6202 32.5855 51.8238 32.6507C50.9975 32.7187 49.8035 33.1041 48.7806 34.5494C48.5597 34.7945 47.4228 36.0655 45.3683 38.3624V36.8477C45.3683 33.4895 43.7299 30.5054 41.2067 28.6407C42.2239 27.2748 43.8225 26.453 45.5592 26.453H49.8477C51.5616 26.453 53.1616 27.2606 54.1917 28.6266V28.628ZM28.9083 28.6152H35.0917C39.6594 28.6152 43.3751 32.3092 43.3751 36.8491V40.5204C40.7051 40.8137 38.5011 41.9388 36.8213 43.8729C33.8336 47.3118 32.5685 53.2588 33.0557 61.555H30.9428C31.4315 53.2616 30.1692 47.3161 27.1801 43.8758C25.5003 41.9416 23.2963 40.8151 20.6235 40.5218V36.8505C20.6235 32.3106 24.3392 28.6167 28.9069 28.6167L28.9083 28.6152ZM32.0014 26.0406C28.8556 26.0406 26.2954 23.4958 26.2954 20.37C26.2954 17.2442 28.8556 14.6952 32.0014 14.6952C35.1473 14.6952 37.7047 17.2414 37.7047 20.37C37.7047 23.4986 35.1458 26.0406 32.0014 26.0406ZM51.3465 20.4338C51.3465 22.4331 49.7123 24.0612 47.7035 24.0612C45.6946 24.0612 44.0604 22.4345 44.0604 20.4338C44.0604 18.4331 45.6946 16.8107 47.7035 16.8107C49.7123 16.8107 51.3465 18.4359 51.3465 20.4338ZM32.0014 1.98514C33.7581 1.98514 35.1886 3.40917 35.1886 5.15769C35.1886 6.9062 33.7596 8.3274 32.0014 8.3274C30.2433 8.3274 28.8114 6.9062 28.8114 5.15769C28.8114 3.40917 30.2433 1.98514 32.0014 1.98514ZM27.1459 6.96713C27.8854 8.91968 29.7817 10.3125 32.0014 10.3125C34.2212 10.3125 36.1146 8.91968 36.8527 6.96713C40.832 8.35148 44.002 11.3554 45.5849 15.2393C43.5233 16.0738 42.0658 18.0873 42.0658 20.4338C42.0658 22.1072 42.8066 23.6106 43.9778 24.6393C42.1669 25.0318 40.5655 26.0874 39.4884 27.6163C38.5054 27.1515 37.4382 26.8398 36.3155 26.7066C38.3558 25.3279 39.6993 23.0027 39.6993 20.37C39.6993 16.1461 36.2457 12.71 32.0014 12.71C27.7571 12.71 24.2993 16.1461 24.2993 20.37C24.2993 23.0027 25.6428 25.3279 27.6845 26.7066C26.5618 26.8398 25.4946 27.1515 24.513 27.6149C23.4359 26.0874 21.8345 25.0318 20.0237 24.6407C21.1962 23.612 21.9371 22.1086 21.9371 20.4352C21.9371 18.0887 20.4796 16.0767 18.4166 15.2407C19.9994 11.3568 23.1681 8.3529 27.1459 6.96854V6.96713ZM16.2951 16.8107C18.3054 16.8107 19.9424 18.4359 19.9424 20.4338C19.9424 22.4317 18.3068 24.0612 16.2951 24.0612C14.2834 24.0612 12.6521 22.4345 12.6521 20.4338C12.6521 18.4331 14.2862 16.8107 16.2951 16.8107ZM14.1552 26.4544H18.4408C20.179 26.4544 21.7775 27.2748 22.7948 28.6407C20.2701 30.504 18.6303 33.4895 18.6303 36.8491V38.3638C16.5758 36.067 15.4389 34.7974 15.218 34.5508C14.1951 33.1055 12.9997 32.7201 12.1734 32.6521C11.3769 32.5869 10.646 32.7782 10.0434 33.0404L9.97356 31.605L9.80686 28.628C10.8369 27.2621 12.4384 26.4544 14.1552 26.4544ZM2.005 42.388C2.41532 27.1813 2.65753 18.1412 2.73447 15.2676C3.77452 15.4079 4.76472 15.8684 5.54405 16.5896C6.71376 17.675 7.35204 19.2421 7.39051 21.121V21.1564L7.98035 31.7099L8.11285 34.4021C6.74083 35.9593 6.83344 38.3142 8.4092 40.0812L16.6356 49.2786C16.8322 49.4996 17.1058 49.6115 17.3808 49.6115C17.6173 49.6115 17.8538 49.5294 18.0433 49.3608C18.455 48.9966 18.4921 48.3689 18.1259 47.9608L9.89947 38.7634C9.07455 37.8381 8.7725 36.4297 9.79261 35.5285C9.79974 35.5214 9.80686 35.5144 9.81399 35.5073C9.81826 35.503 9.82254 35.5002 9.82681 35.4959C9.8895 35.4421 10.9723 34.5182 12.0565 34.6358C12.635 34.6996 13.1436 35.0567 13.6095 35.7311C13.6323 35.7652 13.6579 35.7977 13.6864 35.8289C13.6864 35.8289 15.5642 37.926 19.3198 42.1258C19.4922 42.3199 19.7344 42.4375 19.9937 42.456C22.3702 42.6246 24.2266 43.513 25.6685 45.1737C28.3213 48.2272 29.4212 53.7363 28.9425 61.5522L19.1531 61.5422C8.97197 50.1727 3.25307 43.7865 2.00215 42.3894L2.005 42.388ZM14.0939 67.9837L14.1081 63.5217L49.9033 63.5557L49.889 68.0177L14.0939 67.9837ZM44.8212 61.5663L35.0546 61.5564C34.5774 53.7335 35.6787 48.2229 38.3315 45.1694C39.7734 43.5102 41.6284 42.6232 44.0034 42.4546C44.2627 42.4361 44.5049 42.3171 44.6773 42.1244C48.4329 37.9232 50.3107 35.8275 50.3107 35.8275C50.3378 35.7963 50.3634 35.7637 50.3877 35.7297C50.8536 35.0567 51.3622 34.6982 51.9406 34.6344C53.0291 34.514 54.1105 35.4407 54.1718 35.4945C54.176 35.4988 54.1803 35.5016 54.1846 35.5058L54.206 35.5271C55.2261 36.4297 54.924 37.8381 54.0991 38.762L45.8769 47.9594C45.5108 48.3689 45.5478 48.9966 45.9596 49.3593C46.1491 49.528 46.387 49.6101 46.6221 49.6101C46.8971 49.6101 47.1706 49.4982 47.3686 49.2772L55.5922 40.0783C57.1666 38.3128 57.2606 35.9579 55.8886 34.4006L56.0211 31.7155L56.6109 21.1564C56.6109 21.1451 56.6109 21.1338 56.6109 21.121C56.6494 19.2421 57.2877 17.675 58.4588 16.5896C59.2367 15.867 60.2269 15.4065 61.267 15.2662C61.3439 18.1398 61.5861 27.1799 61.9964 42.3865C60.7455 43.7851 55.0195 50.1797 44.8226 61.5649L44.8212 61.5663Z" fill="white"/>
</svg>
