<svg width="73" height="73" viewBox="0 0 73 73" fill="none" xmlns="http://www.w3.org/2000/svg">
<path d="M42.6321 48.8184H68.9029C70.1933 48.8184 71.25 47.7616 71.25 46.4616V43.9993C71.25 42.7033 70.1933 41.6424 68.9029 41.6424H3.59714C2.30655 41.6424 1.25 42.7033 1.25 43.9993V46.4616C1.25 47.7574 2.30655 48.8184 3.59714 48.8184H29.8517M6.44443 48.8184L11.8848 70.2013C12.0582 70.8896 12.256 71.25 12.8851 71.25H59.6148C60.244 71.25 60.4376 70.8896 60.615 70.2013L66.0554 48.8184M66.7653 41.6424V34.1422L62.6879 29.2541M62.6879 29.2541C61.3451 30.384 59.3286 30.2058 58.2033 28.8572L56.8806 27.2697C55.7553 25.9252 55.9327 23.8963 57.2717 22.7664C58.6146 21.6365 60.6353 21.8147 61.7564 23.1632L63.0833 24.7508C64.2084 26.0994 64.031 28.1243 62.6879 29.2541ZM5.73054 41.6424V34.1422L9.80793 29.2541M9.80793 29.2541C11.1507 30.384 13.1713 30.2058 14.2925 28.8572L15.6193 27.2697C16.7447 25.9252 16.5671 23.8963 15.2242 22.7664C13.8812 21.6365 11.8647 21.8147 10.7395 23.1632L9.4126 24.7508C8.29146 26.0994 8.46896 28.1243 9.80793 29.2541ZM45.9916 13.5977V17.0766C45.9916 21.5556 39.793 25.7267 36.2479 25.7267C32.7029 25.7267 26.5043 21.5516 26.5043 17.0766V13.5977M45.9916 13.5977V11.0343C45.9916 5.65214 41.6077 1.25 36.2479 1.25C30.8922 1.25 26.5043 5.65214 26.5043 11.0343V13.5977M45.9916 13.5977C36.1391 13.5694 31.852 5.82215 26.5043 13.5977M26.5043 26.6136C20.8865 29.2258 20.0072 32.8301 20.0072 41.6423M26.5043 26.6136L29.9928 23.0337M26.5043 26.6136L32.8845 32.5223L36.2479 25.7268L39.6113 32.5223L45.9915 26.6137M45.9915 26.6137L42.507 23.0337M45.9915 26.6137C51.6093 29.2258 52.4886 32.8301 52.4886 41.6423M36.2479 48.8184H36.2439M22.5924 55.7152H49.9075C50.9037 55.7152 51.7223 56.5333 51.7223 57.5336V62.5349C51.7223 63.5393 50.9037 64.3573 49.9075 64.3573H22.5924C21.5922 64.3573 20.7775 63.5393 20.7775 62.5349V57.5336C20.7775 56.5333 21.5922 55.7152 22.5924 55.7152Z" stroke="white" stroke-width="2.5" stroke-miterlimit="10" stroke-linecap="round" stroke-linejoin="round"/>
</svg>
