<svg width="73" height="70" viewBox="0 0 73 70" fill="none" xmlns="http://www.w3.org/2000/svg">
<path d="M19.8012 28.5907C19.8011 28.7611 19.8348 28.9298 19.9003 29.0872C19.9658 29.2445 20.0618 29.3875 20.1829 29.508C20.3039 29.6284 20.4477 29.724 20.6058 29.7891C20.764 29.8543 20.9335 29.8878 21.1047 29.8878H28.7339C28.9051 29.8878 29.0747 29.8543 29.2329 29.7892C29.391 29.724 29.5348 29.6284 29.6558 29.508C29.7769 29.3875 29.8729 29.2445 29.9384 29.0872C30.0039 28.9298 30.0376 28.7611 30.0375 28.5907V22.1815C31.7442 21.877 33.289 20.9852 34.4016 19.662C35.5142 18.3388 36.1238 16.6685 36.1238 14.9433C36.1238 13.218 35.5142 11.5477 34.4016 10.2245C33.289 8.90134 31.7442 8.00949 30.0375 7.705V1.29705C30.0376 1.1267 30.0039 0.95802 29.9384 0.800634C29.8729 0.643248 29.7769 0.500245 29.6558 0.379794C29.5348 0.259343 29.391 0.163805 29.2329 0.0986383C29.0747 0.0334719 28.9051 -4.59641e-05 28.7339 4.73069e-08H5.73686C4.21594 0.00152089 2.75773 0.603311 1.68221 1.67332C0.606691 2.74334 0.00170481 4.19417 4.75449e-08 5.70748V28.5907C-4.61953e-05 28.7611 0.0336403 28.9298 0.0991345 29.0872C0.164629 29.2445 0.260647 29.3875 0.381704 29.508C0.502761 29.6284 0.646484 29.724 0.804662 29.7892C0.962839 29.8543 1.13237 29.8878 1.30357 29.8878H8.93278C9.10398 29.8878 9.27351 29.8543 9.43169 29.7892C9.58986 29.724 9.73359 29.6284 9.85464 29.508C9.9757 29.3875 10.0717 29.2445 10.1372 29.0872C10.2027 28.9298 10.2364 28.7611 10.2363 28.5907C10.2501 27.3377 10.7601 26.1407 11.6554 25.2595C12.5508 24.3783 13.7594 23.8841 15.0188 23.8841C16.2781 23.8841 17.4867 24.3783 18.3821 25.2595C19.2774 26.1407 19.7874 27.3377 19.8012 28.5907ZM7.74444 27.2937H2.60714V5.70748C2.60827 4.88199 2.93839 4.09064 3.5251 3.50699C4.11181 2.92334 4.90722 2.59504 5.73686 2.59409H27.4304V8.88805C27.4303 9.05839 27.464 9.22708 27.5295 9.38446C27.595 9.54185 27.691 9.68485 27.8121 9.8053C27.9331 9.92575 28.0769 10.0213 28.235 10.0865C28.3932 10.1516 28.5627 10.1851 28.7339 10.1851C29.993 10.1991 31.1956 10.7066 32.0809 11.5975C32.9662 12.4883 33.4627 13.6905 33.4627 14.9433C33.4627 16.1961 32.9662 17.3984 32.0808 18.2892C31.1955 19.1799 29.9928 19.6874 28.7338 19.7014C28.5626 19.7014 28.3931 19.7349 28.2349 19.8001C28.0768 19.8653 27.9331 19.9608 27.812 20.0813C27.691 20.2017 27.595 20.3447 27.5295 20.5021C27.464 20.6595 27.4303 20.8281 27.4304 20.9985V27.2937H22.2931C21.9749 25.6055 21.0737 24.0812 19.7453 22.9843C18.4169 21.8874 16.745 21.287 15.0188 21.287C13.2925 21.287 11.6206 21.8874 10.2922 22.9843C8.96386 24.0812 8.06264 25.6055 7.74444 27.2937Z" fill="white"/>
<path d="M67.2631 13.6468H44.2661C44.0949 13.6468 43.9253 13.6803 43.7671 13.7455C43.609 13.8107 43.4652 13.9062 43.3442 14.0266C43.2231 14.1471 43.1271 14.2901 43.0616 14.4475C42.9961 14.6049 42.9624 14.7735 42.9625 14.9439V22.5349C42.9624 22.7053 42.9961 22.8739 43.0616 23.0313C43.1271 23.1887 43.2231 23.3317 43.3442 23.4522C43.4652 23.5726 43.609 23.6681 43.7671 23.7333C43.9253 23.7985 44.0949 23.832 44.2661 23.832C45.5252 23.8458 46.728 24.3533 47.6134 25.2441C48.4988 26.1349 48.9954 27.3373 48.9954 28.5902C48.9954 29.8431 48.4988 31.0454 47.6133 31.9362C46.7278 32.827 45.525 33.3344 44.2659 33.3483C44.0947 33.3482 43.9252 33.3818 43.767 33.4469C43.6089 33.5121 43.4652 33.6077 43.3441 33.7281C43.2231 33.8486 43.1271 33.9916 43.0616 34.1489C42.9961 34.3063 42.9624 34.475 42.9625 34.6453V40.1122H37.8246C37.5184 38.4143 36.6221 36.8776 35.2923 35.7708C33.9626 34.664 32.2842 34.0576 30.5505 34.0576C28.8169 34.0576 27.1385 34.664 25.8087 35.7708C24.479 36.8776 23.5827 38.4143 23.2765 40.1122H16.835C16.6638 40.1121 16.4943 40.1456 16.3361 40.2108C16.1779 40.276 16.0342 40.3715 15.9132 40.492C15.7921 40.6124 15.6961 40.7554 15.6306 40.9128C15.5651 41.0702 15.5314 41.2389 15.5315 41.4092V64.2925C15.5332 65.8058 16.1381 67.2566 17.2137 68.3267C18.2892 69.3967 19.7474 69.9985 21.2683 70H67.2631C68.7841 69.9985 70.2423 69.3967 71.3178 68.3267C72.3933 67.2566 72.9983 65.8058 73 64.2925V19.3544C72.9983 17.841 72.3933 16.3902 71.3178 15.3202C70.2423 14.2502 68.7841 13.6484 67.2631 13.6468ZM51.6553 28.5907C51.6533 26.8661 51.043 25.1969 49.9309 23.874C48.8188 22.5512 47.2753 21.6586 45.5696 21.3519V16.2409H67.2632C68.0928 16.2419 68.8882 16.5702 69.4749 17.1539C70.0616 17.7375 70.3917 18.5289 70.3929 19.3544V40.1122H64.0672C63.896 40.1121 63.7265 40.1456 63.5683 40.2108C63.4101 40.276 63.2664 40.3715 63.1454 40.492C63.0243 40.6124 62.9283 40.7554 62.8628 40.9128C62.7973 41.0702 62.7636 41.2389 62.7637 41.4092C62.7495 42.662 62.2394 43.8587 61.3441 44.7397C60.4487 45.6206 59.2403 46.1146 57.9812 46.1146C56.722 46.1146 55.5136 45.6205 54.6183 44.7395C53.723 43.8586 53.2129 42.6619 53.1988 41.4091C53.1989 41.2387 53.1652 41.0701 53.0997 40.9127C53.0342 40.7553 52.9381 40.6123 52.8171 40.4919C52.696 40.3715 52.5523 40.2759 52.3941 40.2108C52.236 40.1456 52.0664 40.1121 51.8953 40.1122H45.5696V35.8284C47.2751 35.5218 48.8184 34.6294 49.9306 33.3068C51.0427 31.9842 51.653 30.3152 51.6553 28.5907ZM18.1386 64.2925V42.7063H24.4648C24.636 42.7063 24.8056 42.6728 24.9638 42.6076C25.1219 42.5425 25.2656 42.4469 25.3867 42.3265C25.5078 42.206 25.6038 42.063 25.6693 41.9056C25.7348 41.7482 25.7685 41.5796 25.7684 41.4092C25.7705 40.1486 26.2753 38.9404 27.1718 38.0498C28.0684 37.1591 29.2836 36.6589 30.5505 36.6589C31.8174 36.6589 33.0326 37.1591 33.9292 38.0498C34.8258 38.9404 35.3305 40.1486 35.3326 41.4092C35.3326 41.5796 35.3662 41.7482 35.4317 41.9056C35.4972 42.063 35.5933 42.206 35.7143 42.3265C35.8354 42.4469 35.9791 42.5425 36.1373 42.6076C36.2954 42.6728 36.465 42.7063 36.6362 42.7063H42.9624V47.8184C41.2557 48.1229 39.711 49.0148 38.5984 50.338C37.4857 51.6612 36.8761 53.3315 36.8761 55.0567C36.8761 56.7819 37.4857 58.4522 38.5984 59.7754C39.711 61.0986 41.2557 61.9905 42.9624 62.295V67.4059H21.2683C20.4387 67.4049 19.6433 67.0766 19.0566 66.493C18.4699 65.9093 18.1397 65.118 18.1386 64.2925ZM67.2631 67.4059H45.5696V61.1119C45.5697 60.9416 45.536 60.7729 45.4705 60.6155C45.405 60.4581 45.309 60.3151 45.1879 60.1947C45.0669 60.0742 44.9231 59.9787 44.765 59.9135C44.6068 59.8483 44.4373 59.8148 44.2661 59.8149C42.9978 59.8149 41.7814 59.3136 40.8846 58.4212C39.9878 57.5289 39.484 56.3186 39.484 55.0567C39.484 53.7948 39.9878 52.5845 40.8846 51.6922C41.7814 50.7998 42.9978 50.2985 44.2661 50.2985C44.4373 50.2986 44.6068 50.2651 44.765 50.1999C44.9231 50.1347 45.0669 50.0392 45.1879 49.9187C45.309 49.7983 45.405 49.6553 45.4705 49.4979C45.536 49.3405 45.5697 49.1718 45.5696 49.0015V43.5334H50.7069C51.0128 45.2315 51.9091 46.7685 53.2389 47.8756C54.5687 48.9826 56.2474 49.5892 57.9812 49.5892C59.7151 49.5892 61.3938 48.9826 62.7236 47.8756C64.0534 46.7685 64.9497 45.2315 65.2556 43.5334H70.3929V64.2925C70.3917 65.118 70.0616 65.9093 69.4749 66.493C68.8882 67.0766 68.0928 67.405 67.2631 67.4059Z" fill="white"/>
</svg>
