<svg width="90" height="72" viewBox="0 0 90 72" fill="none" xmlns="http://www.w3.org/2000/svg">
<path d="M60.27 28.2335C58.3735 28.2335 56.5906 27.5001 55.2495 26.1684C53.9085 24.8368 53.17 23.0662 53.17 21.183C53.17 19.2998 53.9085 17.5292 55.2495 16.1976C56.5906 14.8659 58.3735 14.1326 60.27 14.1326C62.1665 14.1326 63.9494 14.8659 65.2904 16.1976C66.6314 17.5292 67.37 19.2998 67.37 21.183C67.37 23.0662 66.6314 24.8368 65.2904 26.1684C63.9494 27.5001 62.1665 28.2335 60.27 28.2335ZM60.27 15.3504C57.0313 15.3504 54.3964 17.9669 54.3964 21.183C54.3964 24.3991 57.0313 27.0156 60.27 27.0156C63.5087 27.0156 66.1436 24.3991 66.1436 21.183C66.1436 17.9669 63.5087 15.3504 60.27 15.3504Z" fill="white"/>
<path d="M68.1163 70.7495C67.6214 70.7495 67.1331 70.6557 66.6777 70.4705C66.0568 70.218 65.5079 69.8026 65.0902 69.2692C64.6728 68.736 64.4027 68.1057 64.3094 67.4464C64.2101 66.7443 64.3155 66.0228 64.6143 65.3598L70.1233 53.1716C69.5169 52.6455 69.0089 52.0248 68.6096 51.321L64.9625 44.8919C64.7964 44.5989 64.9008 44.2276 65.1959 44.0625C65.4908 43.8975 65.8648 44.0012 66.0311 44.2942L69.6781 50.7232C70.0757 51.424 70.6033 52.0252 71.2462 52.5101C71.4734 52.6815 71.5516 52.9859 71.4347 53.2444L65.7334 65.8579C65.3307 66.7513 65.4521 67.7473 66.0584 68.5216C66.6651 69.2966 67.6082 69.6591 68.5808 69.4916L85.5547 66.6084C86.6956 66.4146 87.5237 65.4405 87.5237 64.292C87.5237 64.1575 87.5116 64.0184 87.4878 63.8784C87.2582 62.6021 86.0255 61.7466 84.739 61.9714L72.6649 64.0972C72.4409 64.1366 72.2133 64.0496 72.0737 63.8713C71.9341 63.6929 71.9054 63.4524 71.9992 63.2466L76.3596 53.6764C76.4289 53.5243 76.5581 53.4072 76.7169 53.3523C77.0499 53.2373 77.3595 53.0996 77.6369 52.943C79.0007 52.1808 79.9826 50.9397 80.4038 49.447C80.8251 47.9543 80.6353 46.3879 79.8693 45.0364L72.4702 31.96C71.7057 30.6066 70.4566 29.6307 68.9528 29.2118C67.449 28.7929 65.8709 28.9812 64.5094 29.742C63.1472 30.5017 62.1648 31.7419 61.7428 33.2343C61.3206 34.7274 61.5098 36.2948 62.2757 37.6478L63.1697 39.2294C63.3355 39.5227 63.2305 39.8939 62.9352 40.0585C62.6399 40.2231 62.2661 40.1189 62.1003 39.8255L61.2064 38.2442C60.2801 36.6078 60.0512 34.7115 60.5621 32.9051C61.0727 31.0995 62.2611 29.5992 63.9084 28.6805C65.5551 27.7602 67.4644 27.5324 69.2841 28.0392C71.1036 28.5461 72.6148 29.7268 73.5396 31.3639L80.9383 44.4394C81.8648 46.0742 82.0944 47.9695 81.5847 49.7757C81.0751 51.5814 79.8875 53.0827 78.2406 54.0031C77.9724 54.1544 77.6805 54.2913 77.3711 54.4107L73.5959 62.6964L84.5256 60.7722C85.4726 60.6068 86.4268 60.8161 87.2133 61.3616C88.0006 61.9077 88.5271 62.7264 88.6955 63.667C88.6958 63.6685 88.696 63.67 88.6963 63.6715C88.7319 63.8797 88.75 64.0884 88.75 64.292C88.75 65.1247 88.4523 65.9372 87.9116 66.5799C87.3649 67.2297 86.6012 67.6662 85.7613 67.8088L68.789 70.6918C68.5651 70.7303 68.34 70.7495 68.1163 70.7495Z" fill="white"/>
<path d="M49.4695 53.4253C48.1582 53.4253 46.9459 52.5731 46.5581 51.262C46.0868 49.6686 47.0089 47.9915 48.6134 47.5235L59.5278 44.3403L64.6108 34.2459C64.7623 33.9451 65.1306 33.8232 65.4335 33.9736C65.7364 34.124 65.8592 34.4898 65.7077 34.7906L60.5052 45.1221C60.4291 45.2734 60.293 45.3864 60.1296 45.4341L48.959 48.692C48.0033 48.9708 47.4541 49.9697 47.7348 50.9188C48.0153 51.8671 49.02 52.4124 49.9749 52.1351L61.6963 48.6224C61.7373 48.6101 61.7794 48.6021 61.8221 48.5985C62.4576 48.5455 63.006 48.178 63.2893 47.6155L68.9393 36.3952C69.0907 36.0944 69.4591 35.9725 69.762 36.1229C70.0648 36.2733 70.1876 36.6391 70.0361 36.9399L64.3862 48.1602C63.9202 49.0856 63.0288 49.6969 61.9924 49.8058L50.3271 53.3017C50.3257 53.3021 50.3242 53.3025 50.3228 53.3029C50.0386 53.3858 49.7518 53.4253 49.4695 53.4253Z" fill="white"/>
<path d="M31.9153 15.262C29.9635 15.262 28.1286 14.5072 26.7485 13.1367C25.3684 11.7663 24.6083 9.94412 24.6083 8.00598C24.6083 6.06783 25.3684 4.24569 26.7485 2.87523C28.1286 1.50476 29.9635 0.75 31.9153 0.75C33.867 0.75 35.702 1.50476 37.0821 2.87523C38.4622 4.24572 39.2222 6.06783 39.2222 8.00598C39.2222 9.94412 38.4622 11.7663 37.0821 13.1367C35.702 14.5072 33.867 15.262 31.9153 15.262ZM31.9153 1.96783C28.5624 1.96783 25.8347 4.67652 25.8347 8.00598C25.8347 11.3354 28.5624 14.0441 31.9153 14.0441C35.2681 14.0441 37.9958 11.3354 37.9958 8.00598C37.9958 4.67652 35.2681 1.96783 31.9153 1.96783Z" fill="white"/>
<path d="M11.487 70.75C9.34559 70.75 7.60342 69.02 7.60342 66.8935V49.8571L4.0813 33.9529C3.4336 33.5522 2.86244 33.0576 2.38081 32.4798C1.17133 31.0295 0.603586 29.1991 0.782259 27.3256C0.960875 25.4528 1.8639 23.7609 3.32504 22.5614L15.0042 12.965C16.4654 11.7655 18.3086 11.2024 20.1944 11.3791C22.0808 11.556 23.7847 12.4522 24.9922 13.9027C26.2003 15.3492 26.7683 17.1778 26.5909 19.0508C26.4132 20.9263 25.51 22.6203 24.0477 23.8207L23.2387 24.4861C22.978 24.7006 22.5914 24.6646 22.3753 24.4056C22.1593 24.1466 22.1956 23.7627 22.4564 23.5482L23.2659 22.8825C24.4759 21.8892 25.2229 20.488 25.3699 18.9367C25.5166 17.388 25.047 15.876 24.0476 14.6794C23.0483 13.479 21.6392 12.7379 20.0791 12.5916C18.5192 12.4454 16.9945 12.9113 15.7859 13.9034L4.10669 23.4999C2.89789 24.4922 2.15096 25.8915 2.00326 27.4404C1.8555 28.9896 2.32507 30.5035 3.32549 31.7031C3.77085 32.2373 4.30982 32.6858 4.92757 33.0364C5.07797 33.1217 5.18501 33.2663 5.22224 33.4343L8.81558 49.6601C8.82508 49.703 8.82989 49.7469 8.82989 49.7909V66.8935C8.82989 68.3484 10.0219 69.5321 11.4871 69.5321C12.9523 69.5321 14.1443 68.3484 14.1443 66.8935V49.4377C14.1443 49.2416 14.1239 49.0575 14.082 48.8748C14.0816 48.8733 14.0813 48.8718 14.0809 48.8702L10.692 33.566C10.6362 33.3138 10.7466 33.054 10.9675 32.9178C11.2018 32.7734 11.4038 32.6303 11.5851 32.4803L18.1685 27.0716C18.4294 26.8572 18.816 26.8936 19.0318 27.1527C19.2477 27.4118 19.2112 27.7956 18.9502 28.01L12.3686 33.4172C12.2467 33.5181 12.1179 33.616 11.9802 33.7125L15.2784 48.607C15.3405 48.8786 15.3707 49.1504 15.3707 49.4377V66.8935C15.3706 69.02 13.6284 70.75 11.487 70.75Z" fill="white"/>
<path d="M29.269 39.695C28.5142 39.695 27.7885 39.4196 27.2254 38.9195L19.4581 32.0183C18.967 31.5816 18.6254 30.9879 18.496 30.3465L16.0432 18.1679C15.9768 17.8381 16.1921 17.5173 16.5242 17.4514C16.8563 17.3855 17.1794 17.5993 17.2458 17.9291L19.6986 30.1075C19.7762 30.4924 19.9813 30.8487 20.276 31.1109L28.043 38.0118C28.3808 38.3119 28.8163 38.4771 29.2689 38.4771C29.792 38.4771 30.2921 38.2552 30.6409 37.8684C31.317 37.1178 31.2523 35.9605 30.4964 35.2889L23.3385 28.9293C23.2396 28.8414 23.1721 28.7241 23.146 28.5949L20.8537 17.2125C20.7873 16.8827 21.0027 16.5619 21.3348 16.4959C21.6668 16.4302 21.9899 16.6439 22.0563 16.9736L24.3085 28.157L31.3142 34.3812C32.5739 35.5006 32.6818 37.4292 31.5548 38.6805C30.9735 39.3253 30.1404 39.695 29.269 39.695Z" fill="white"/>
<path d="M29.8693 70.75C29.7395 70.75 29.6089 70.7381 29.481 70.7148C28.9163 70.6128 28.4242 70.2979 28.0967 69.8281C27.7693 69.3584 27.6457 68.7903 27.7486 68.2282L29.1703 60.4634C28.7405 59.7567 28.5145 58.9519 28.5145 58.1203V54.1864C28.5145 53.3065 28.769 52.453 29.2505 51.7181C29.5014 51.3351 29.807 50.9941 30.1563 50.7044C28.4954 49.701 27.4392 47.8933 27.4392 45.9141C27.4392 42.8204 29.9738 40.3034 33.0892 40.3034C36.2046 40.3034 38.7392 42.8204 38.7392 45.9141C38.7392 47.8956 37.6809 49.7051 36.0166 50.7077C36.1499 50.8195 36.2775 50.9393 36.3984 51.0662L41.3063 49.2835C41.8464 49.0872 42.4313 49.1115 42.9532 49.3521C43.4751 49.5927 43.8712 50.0207 44.0686 50.5572C44.3276 51.2602 44.2031 52.0307 43.7356 52.6185C43.4885 52.9292 43.1599 53.165 42.7854 53.3006L37.664 55.1609V57.3032L40.0024 58.3587C40.7694 58.705 41.265 59.4693 41.265 60.3058V65.114C41.265 66.2933 40.2988 67.2528 39.1112 67.2528C37.9236 67.2528 36.9574 66.2933 36.9574 65.114V61.6831L36.278 61.3765C35.4405 62.1864 34.3245 62.6485 33.1457 62.6628L31.9866 68.9933C31.8006 70.0111 30.9102 70.75 29.8693 70.75ZM33.0892 41.5213C30.6501 41.5213 28.6656 43.4919 28.6656 45.9141C28.6656 47.7694 29.8518 49.4323 31.6172 50.0519C31.8518 50.1342 32.013 50.3492 32.0253 50.5961C32.0375 50.8429 31.8983 51.0726 31.6729 51.1774C30.4993 51.7234 29.7409 52.9045 29.7409 54.1864V58.1203C29.7409 58.7919 29.9422 59.4394 30.3231 59.9929C30.4141 60.1252 30.4489 60.2877 30.4201 60.4454L28.9552 68.4461C28.9109 68.6881 28.9641 68.9327 29.1051 69.1349C29.246 69.3372 29.4579 69.4728 29.7017 69.5168C29.7579 69.5271 29.8138 69.5321 29.8693 69.5321C30.3168 69.5321 30.6998 69.214 30.7799 68.7757L32.0354 61.9182C32.0932 61.6028 32.387 61.3862 32.7078 61.422C32.8471 61.4377 32.9719 61.4453 33.0892 61.4453C34.0832 61.4453 35.0199 61.0098 35.6591 60.2502C35.836 60.0401 36.1323 59.973 36.3834 60.0864L37.8243 60.7367C38.0432 60.8355 38.1837 61.0523 38.1837 61.2911V65.114C38.1837 65.6218 38.5997 66.0349 39.1111 66.0349C39.6225 66.0349 40.0385 65.6218 40.0385 65.114V60.3058C40.0385 59.9456 39.8251 59.6165 39.4948 59.4674L36.797 58.2496C36.5781 58.1508 36.4375 57.9341 36.4375 57.6953V54.7352C36.4375 54.4796 36.5983 54.2512 36.8401 54.1634L42.3647 52.1566C42.5261 52.0982 42.6671 51.997 42.7732 51.8637C42.9746 51.6103 43.0284 51.2783 42.9168 50.9756L42.9168 50.9753C42.8318 50.7444 42.6614 50.5602 42.4368 50.4567C42.2121 50.3531 41.9603 50.3426 41.7277 50.4272L36.4214 52.3547C36.1713 52.4454 35.8907 52.3657 35.7271 52.157C35.3945 51.7332 34.9721 51.3944 34.5055 51.1774C34.2801 51.0725 34.1409 50.8428 34.1531 50.596C34.1654 50.3492 34.3266 50.1342 34.5612 50.0518C36.3267 49.4322 37.5128 47.7693 37.5128 45.9141C37.5129 43.4919 35.5284 41.5213 33.0892 41.5213Z" fill="white"/>
<path d="M60.27 28.2335C58.3735 28.2335 56.5906 27.5001 55.2495 26.1684C53.9085 24.8368 53.17 23.0662 53.17 21.183C53.17 19.2998 53.9085 17.5292 55.2495 16.1976C56.5906 14.8659 58.3735 14.1326 60.27 14.1326C62.1665 14.1326 63.9494 14.8659 65.2904 16.1976C66.6314 17.5292 67.37 19.2998 67.37 21.183C67.37 23.0662 66.6314 24.8368 65.2904 26.1684C63.9494 27.5001 62.1665 28.2335 60.27 28.2335ZM60.27 15.3504C57.0313 15.3504 54.3964 17.9669 54.3964 21.183C54.3964 24.3991 57.0313 27.0156 60.27 27.0156C63.5087 27.0156 66.1436 24.3991 66.1436 21.183C66.1436 17.9669 63.5087 15.3504 60.27 15.3504Z" stroke="white" stroke-width="1.5"/>
<path d="M68.1163 70.7495C67.6214 70.7495 67.1331 70.6557 66.6777 70.4705C66.0568 70.218 65.5079 69.8026 65.0902 69.2692C64.6728 68.736 64.4027 68.1057 64.3094 67.4464C64.2101 66.7443 64.3155 66.0228 64.6143 65.3598L70.1233 53.1716C69.5169 52.6455 69.0089 52.0248 68.6096 51.321L64.9625 44.8919C64.7964 44.5989 64.9008 44.2276 65.1959 44.0625C65.4908 43.8975 65.8648 44.0012 66.0311 44.2942L69.6781 50.7232C70.0757 51.424 70.6033 52.0252 71.2462 52.5101C71.4734 52.6815 71.5516 52.9859 71.4347 53.2444L65.7334 65.8579C65.3307 66.7513 65.4521 67.7473 66.0584 68.5216C66.6651 69.2966 67.6082 69.6591 68.5808 69.4916L85.5547 66.6084C86.6956 66.4146 87.5237 65.4405 87.5237 64.292C87.5237 64.1575 87.5116 64.0184 87.4878 63.8784C87.2582 62.6021 86.0255 61.7466 84.739 61.9714L72.6649 64.0972C72.4409 64.1366 72.2133 64.0496 72.0737 63.8713C71.9341 63.6929 71.9054 63.4524 71.9992 63.2466L76.3596 53.6764C76.4289 53.5243 76.5581 53.4072 76.7169 53.3523C77.0499 53.2373 77.3595 53.0996 77.6369 52.943C79.0007 52.1808 79.9826 50.9397 80.4038 49.447C80.8251 47.9543 80.6353 46.3879 79.8693 45.0364L72.4702 31.96C71.7057 30.6066 70.4566 29.6307 68.9528 29.2118C67.449 28.7929 65.8709 28.9812 64.5094 29.742C63.1472 30.5017 62.1648 31.7419 61.7428 33.2343C61.3206 34.7274 61.5098 36.2948 62.2757 37.6478L63.1697 39.2294C63.3355 39.5227 63.2305 39.8939 62.9352 40.0585C62.6399 40.2231 62.2661 40.1189 62.1003 39.8255L61.2064 38.2442C60.2801 36.6078 60.0512 34.7115 60.5621 32.9051C61.0727 31.0995 62.2611 29.5992 63.9084 28.6805C65.5551 27.7602 67.4644 27.5324 69.2841 28.0392C71.1036 28.5461 72.6148 29.7268 73.5396 31.3639L80.9383 44.4394C81.8648 46.0742 82.0944 47.9695 81.5847 49.7757C81.0751 51.5814 79.8875 53.0827 78.2406 54.0031C77.9724 54.1544 77.6805 54.2913 77.3711 54.4107L73.5959 62.6964L84.5256 60.7722C85.4726 60.6068 86.4268 60.8161 87.2133 61.3616C88.0006 61.9077 88.5271 62.7264 88.6955 63.667C88.6958 63.6685 88.696 63.67 88.6963 63.6715C88.7319 63.8797 88.75 64.0884 88.75 64.292C88.75 65.1247 88.4523 65.9372 87.9116 66.5799C87.3649 67.2297 86.6012 67.6662 85.7613 67.8088L68.789 70.6918C68.5651 70.7303 68.34 70.7495 68.1163 70.7495Z" stroke="white" stroke-width="1.5"/>
<path d="M49.4695 53.4253C48.1582 53.4253 46.9459 52.5731 46.5581 51.262C46.0868 49.6686 47.0089 47.9915 48.6134 47.5235L59.5278 44.3403L64.6108 34.2459C64.7623 33.9451 65.1306 33.8232 65.4335 33.9736C65.7364 34.124 65.8592 34.4898 65.7077 34.7906L60.5052 45.1221C60.4291 45.2734 60.293 45.3864 60.1296 45.4341L48.959 48.692C48.0033 48.9708 47.4541 49.9697 47.7348 50.9188C48.0153 51.8671 49.02 52.4124 49.9749 52.1351L61.6963 48.6224C61.7373 48.6101 61.7794 48.6021 61.8221 48.5985C62.4576 48.5455 63.006 48.178 63.2893 47.6155L68.9393 36.3952C69.0907 36.0944 69.4591 35.9725 69.762 36.1229C70.0648 36.2733 70.1876 36.6391 70.0361 36.9399L64.3862 48.1602C63.9202 49.0856 63.0288 49.6969 61.9924 49.8058L50.3271 53.3017C50.3257 53.3021 50.3242 53.3025 50.3228 53.3029C50.0386 53.3858 49.7518 53.4253 49.4695 53.4253Z" stroke="white" stroke-width="1.5"/>
<path d="M31.9153 15.262C29.9635 15.262 28.1286 14.5072 26.7485 13.1367C25.3684 11.7663 24.6083 9.94412 24.6083 8.00598C24.6083 6.06783 25.3684 4.24569 26.7485 2.87523C28.1286 1.50476 29.9635 0.75 31.9153 0.75C33.867 0.75 35.702 1.50476 37.0821 2.87523C38.4622 4.24572 39.2222 6.06783 39.2222 8.00598C39.2222 9.94412 38.4622 11.7663 37.0821 13.1367C35.702 14.5072 33.867 15.262 31.9153 15.262ZM31.9153 1.96783C28.5624 1.96783 25.8347 4.67652 25.8347 8.00598C25.8347 11.3354 28.5624 14.0441 31.9153 14.0441C35.2681 14.0441 37.9958 11.3354 37.9958 8.00598C37.9958 4.67652 35.2681 1.96783 31.9153 1.96783Z" stroke="white" stroke-width="1.5"/>
<path d="M11.487 70.75C9.34559 70.75 7.60342 69.02 7.60342 66.8935V49.8571L4.0813 33.9529C3.4336 33.5522 2.86244 33.0576 2.38081 32.4798C1.17133 31.0295 0.603586 29.1991 0.782259 27.3256C0.960875 25.4528 1.8639 23.7609 3.32504 22.5614L15.0042 12.965C16.4654 11.7655 18.3086 11.2024 20.1944 11.3791C22.0808 11.556 23.7847 12.4522 24.9922 13.9027C26.2003 15.3492 26.7683 17.1778 26.5909 19.0508C26.4132 20.9263 25.51 22.6203 24.0477 23.8207L23.2387 24.4861C22.978 24.7006 22.5914 24.6646 22.3753 24.4056C22.1593 24.1466 22.1956 23.7627 22.4564 23.5482L23.2659 22.8825C24.4759 21.8892 25.2229 20.488 25.3699 18.9367C25.5166 17.388 25.047 15.876 24.0476 14.6794C23.0483 13.479 21.6392 12.7379 20.0791 12.5916C18.5192 12.4454 16.9945 12.9113 15.7859 13.9034L4.10669 23.4999C2.89789 24.4922 2.15096 25.8915 2.00326 27.4404C1.8555 28.9896 2.32507 30.5035 3.32549 31.7031C3.77085 32.2373 4.30982 32.6858 4.92757 33.0364C5.07797 33.1217 5.18501 33.2663 5.22224 33.4343L8.81558 49.6601C8.82508 49.703 8.82989 49.7469 8.82989 49.7909V66.8935C8.82989 68.3484 10.0219 69.5321 11.4871 69.5321C12.9523 69.5321 14.1443 68.3484 14.1443 66.8935V49.4377C14.1443 49.2416 14.1239 49.0575 14.082 48.8748C14.0816 48.8733 14.0813 48.8718 14.0809 48.8702L10.692 33.566C10.6362 33.3138 10.7466 33.054 10.9675 32.9178C11.2018 32.7734 11.4038 32.6303 11.5851 32.4803L18.1685 27.0716C18.4294 26.8572 18.816 26.8936 19.0318 27.1527C19.2477 27.4118 19.2112 27.7956 18.9502 28.01L12.3686 33.4172C12.2467 33.5181 12.1179 33.616 11.9802 33.7125L15.2784 48.607C15.3405 48.8786 15.3707 49.1504 15.3707 49.4377V66.8935C15.3706 69.02 13.6284 70.75 11.487 70.75Z" stroke="white" stroke-width="1.5"/>
<path d="M29.269 39.695C28.5142 39.695 27.7885 39.4196 27.2254 38.9195L19.4581 32.0183C18.967 31.5816 18.6254 30.9879 18.496 30.3465L16.0432 18.1679C15.9768 17.8381 16.1921 17.5173 16.5242 17.4514C16.8563 17.3855 17.1794 17.5993 17.2458 17.9291L19.6986 30.1075C19.7762 30.4924 19.9813 30.8487 20.276 31.1109L28.043 38.0118C28.3808 38.3119 28.8163 38.4771 29.2689 38.4771C29.792 38.4771 30.2921 38.2552 30.6409 37.8684C31.317 37.1178 31.2523 35.9605 30.4964 35.2889L23.3385 28.9293C23.2396 28.8414 23.1721 28.7241 23.146 28.5949L20.8537 17.2125C20.7873 16.8827 21.0027 16.5619 21.3348 16.4959C21.6668 16.4302 21.9899 16.6439 22.0563 16.9736L24.3085 28.157L31.3142 34.3812C32.5739 35.5006 32.6818 37.4292 31.5548 38.6805C30.9735 39.3253 30.1404 39.695 29.269 39.695Z" stroke="white" stroke-width="1.5"/>
<path d="M29.8693 70.75C29.7395 70.75 29.6089 70.7381 29.481 70.7148C28.9163 70.6128 28.4242 70.2979 28.0967 69.8281C27.7693 69.3584 27.6457 68.7903 27.7486 68.2282L29.1703 60.4634C28.7405 59.7567 28.5145 58.9519 28.5145 58.1203V54.1864C28.5145 53.3065 28.769 52.453 29.2505 51.7181C29.5014 51.3351 29.807 50.9941 30.1563 50.7044C28.4954 49.701 27.4392 47.8933 27.4392 45.9141C27.4392 42.8204 29.9738 40.3034 33.0892 40.3034C36.2046 40.3034 38.7392 42.8204 38.7392 45.9141C38.7392 47.8956 37.6809 49.7051 36.0166 50.7077C36.1499 50.8195 36.2775 50.9393 36.3984 51.0662L41.3063 49.2835C41.8464 49.0872 42.4313 49.1115 42.9532 49.3521C43.4751 49.5927 43.8712 50.0207 44.0686 50.5572C44.3276 51.2602 44.2031 52.0307 43.7356 52.6185C43.4885 52.9292 43.1599 53.165 42.7854 53.3006L37.664 55.1609V57.3032L40.0024 58.3587C40.7694 58.705 41.265 59.4693 41.265 60.3058V65.114C41.265 66.2933 40.2988 67.2528 39.1112 67.2528C37.9236 67.2528 36.9574 66.2933 36.9574 65.114V61.6831L36.278 61.3765C35.4405 62.1864 34.3245 62.6485 33.1457 62.6628L31.9866 68.9933C31.8006 70.0111 30.9102 70.75 29.8693 70.75ZM33.0892 41.5213C30.6501 41.5213 28.6656 43.4919 28.6656 45.9141C28.6656 47.7694 29.8518 49.4323 31.6172 50.0519C31.8518 50.1342 32.013 50.3492 32.0253 50.5961C32.0375 50.8429 31.8983 51.0726 31.6729 51.1774C30.4993 51.7234 29.7409 52.9045 29.7409 54.1864V58.1203C29.7409 58.7919 29.9422 59.4394 30.3231 59.9929C30.4141 60.1252 30.4489 60.2877 30.4201 60.4454L28.9552 68.4461C28.9109 68.6881 28.9641 68.9327 29.1051 69.1349C29.246 69.3372 29.4579 69.4728 29.7017 69.5168C29.7579 69.5271 29.8138 69.5321 29.8693 69.5321C30.3168 69.5321 30.6998 69.214 30.7799 68.7757L32.0354 61.9182C32.0932 61.6028 32.387 61.3862 32.7078 61.422C32.8471 61.4377 32.9719 61.4453 33.0892 61.4453C34.0832 61.4453 35.0199 61.0098 35.6591 60.2502C35.836 60.0401 36.1323 59.973 36.3834 60.0864L37.8243 60.7367C38.0432 60.8355 38.1837 61.0523 38.1837 61.2911V65.114C38.1837 65.6218 38.5997 66.0349 39.1111 66.0349C39.6225 66.0349 40.0385 65.6218 40.0385 65.114V60.3058C40.0385 59.9456 39.8251 59.6165 39.4948 59.4674L36.797 58.2496C36.5781 58.1508 36.4375 57.9341 36.4375 57.6953V54.7352C36.4375 54.4796 36.5983 54.2512 36.8401 54.1634L42.3647 52.1566C42.5261 52.0982 42.6671 51.997 42.7732 51.8637C42.9746 51.6103 43.0284 51.2783 42.9168 50.9756L42.9168 50.9753C42.8318 50.7444 42.6614 50.5602 42.4368 50.4567C42.2121 50.3531 41.9603 50.3426 41.7277 50.4272L36.4214 52.3547C36.1713 52.4454 35.8907 52.3657 35.7271 52.157C35.3945 51.7332 34.9721 51.3944 34.5055 51.1774C34.2801 51.0725 34.1409 50.8428 34.1531 50.596C34.1654 50.3492 34.3266 50.1342 34.5612 50.0518C36.3267 49.4322 37.5128 47.7693 37.5128 45.9141C37.5129 43.4919 35.5284 41.5213 33.0892 41.5213Z" stroke="white" stroke-width="1.5"/>
</svg>
